<svg width="32" height="32" viewBox="0 0 32 32" fill="none" xmlns="http://www.w3.org/2000/svg">
  <!-- Background with gradient -->
  <rect width="32" height="32" rx="7" fill="url(#bgGradient)"/>
  
  <!-- Main Sparkle/Star - More prominent and cleaner -->
  <path d="M16 4L17.5 11L24 12.5L17.5 14L16 21L14.5 14L8 12.5L14.5 11L16 4Z" 
        fill="url(#sparkleGradient)" 
        opacity="0.95"/>
  
  <!-- Inner sparkle highlight -->
  <path d="M16 7L17 11.5L21.5 12.5L17 13.5L16 18L15 13.5L10.5 12.5L15 11.5L16 7Z" 
        fill="white" 
        opacity="0.6"/>
  
  <!-- Small accent sparkles for magic effect -->
  <circle cx="10" cy="8" r="1.5" fill="url(#accentGradient)" opacity="0.8"/>
  <circle cx="22" cy="9" r="1" fill="url(#accentGradient)" opacity="0.7"/>
  <circle cx="23" cy="20" r="1.2" fill="url(#accentGradient)" opacity="0.75"/>
  <circle cx="9" cy="22" r="1" fill="url(#accentGradient)" opacity="0.7"/>
  
  <defs>
    <!-- Background gradient - Blue to Purple (matching brand) -->
    <linearGradient id="bgGradient" x1="0" y1="0" x2="32" y2="32" gradientUnits="userSpaceOnUse">
      <stop stop-color="#6366F1"/>
      <stop offset="0.5" stop-color="#8B5CF6"/>
      <stop offset="1" stop-color="#A855F7"/>
    </linearGradient>
    
    <!-- Sparkle gradient - Gold/Yellow (magic/warmth) -->
    <linearGradient id="sparkleGradient" x1="8" y1="4" x2="24" y2="21" gradientUnits="userSpaceOnUse">
      <stop stop-color="#FCD34D"/>
      <stop offset="0.5" stop-color="#FBBF24"/>
      <stop offset="1" stop-color="#F59E0B"/>
    </linearGradient>
    
    <!-- Accent gradient for small sparkles -->
    <linearGradient id="accentGradient" x1="0" y1="0" x2="4" y2="4" gradientUnits="userSpaceOnUse">
      <stop stop-color="#FCD34D"/>
      <stop offset="1" stop-color="#FBBF24"/>
    </linearGradient>
  </defs>
</svg>
