<svg width="32" height="32" viewBox="0 0 32 32" fill="none" xmlns="http://www.w3.org/2000/svg">
  <rect width="32" height="32" rx="8" fill="url(#gradient)"/>
  <!-- Sparkle/Star Icon -->
  <path d="M16 6L18 12L24 14L18 16L16 22L14 16L8 14L14 12L16 6Z" fill="white" opacity="0.95"/>
  <path d="M16 8L17.5 12.5L22 13.5L17.5 15L16 19.5L14.5 15L10 13.5L14.5 12.5L16 8Z" fill="url(#gradient2)"/>
  <!-- Map Pin -->
  <circle cx="16" cy="20" r="3" fill="white" opacity="0.9"/>
  <path d="M16 10C13.79 10 12 11.79 12 14C12 16.5 16 22 16 22C16 22 20 16.5 20 14C20 11.79 18.21 10 16 10Z" fill="white" opacity="0.7"/>
  <defs>
    <linearGradient id="gradient" x1="0" y1="0" x2="32" y2="32" gradientUnits="userSpaceOnUse">
      <stop stop-color="#6366F1"/>
      <stop offset="1" stop-color="#A855F7"/>
    </linearGradient>
    <linearGradient id="gradient2" x1="10" y1="8" x2="22" y2="19.5" gradientUnits="userSpaceOnUse">
      <stop stop-color="#FCD34D"/>
      <stop offset="1" stop-color="#F59E0B"/>
    </linearGradient>
  </defs>
</svg>

